<svg xmlns="http://www.w3.org/2000/svg" viewBox="0 0 461.29 364.52"><defs><style>.cls-1{isolation:isolate;}.cls-2{fill:#cff3ff;}.cls-10,.cls-3{fill:#0064cc;}.cls-12,.cls-3,.cls-5,.cls-6,.cls-7,.cls-9{fill-rule:evenodd;}.cls-4{fill:#00c1e7;}.cls-5{fill:#e8eaeb;}.cls-16,.cls-6{fill:#fff;}.cls-7,.cls-8,.cls-9{fill:#bac8cc;}.cls-9{opacity:0.46;}.cls-11,.cls-12{fill:#143a68;}.cls-13{fill:#b0ebff;}.cls-14{fill:#ff2a77;}.cls-15{fill:#65c6e3;}.cls-17,.cls-29,.cls-30{fill:none;}.cls-17{stroke:#fff;stroke-linecap:round;stroke-linejoin:round;stroke-width:1.4px;}.cls-18{fill:#d18f00;}.cls-19,.cls-20{fill:#9cb7c6;}.cls-20{mix-blend-mode:multiply;opacity:0.37;}.cls-21{fill:#0b304c;}.cls-22,.cls-23{fill:#1967a8;}.cls-23{font-size:12px;font-family:Montserrat-Bold, Montserrat Bold;font-weight:700;}.cls-24{letter-spacing:0.01em;}.cls-25{letter-spacing:0em;}.cls-26{letter-spacing:0em;}.cls-27{letter-spacing:-0.08em;}.cls-28{fill:#00ace4;}.cls-29{stroke:#ff2a77;stroke-miterlimit:10;stroke-width:0.9px;}.cls-31{opacity:0.27;}</style></defs><g class="cls-1"><g id="Layer_2" data-name="Layer 2"><g id="OBJECTS"><circle class="cls-2" cx="226.13" cy="178.98" r="178.98"/><ellipse class="cls-2" cx="224.18" cy="328.63" rx="218.31" ry="35.89"/><polygon class="cls-3" points="0 295.37 21.46 295.37 21.46 305.69 10.85 305.69 0 295.37"/><path class="cls-4" d="M166.68,253.22,10.85,260.61,0,253.22v-5.87H166.68a8.66,8.66,0,0,0,8.65-8.65V219c0-4.77-1.76-.52-6.53-.52l-158-3.67L0,204.51H166.68A14.54,14.54,0,0,1,181.2,219V238.7A14.54,14.54,0,0,1,166.68,253.22Z"/><polygon class="cls-5" points="13.25 257.67 2.99 248.65 2.99 210.08 13.25 217.3 13.25 257.67"/><path class="cls-6" d="M13.17,260.61H177.53A11.59,11.59,0,0,0,189.12,249V229.34a11.59,11.59,0,0,0-11.59-11.58H13.17Z"/><polygon class="cls-7" points="13.17 228.48 30.7 230.19 13.17 232.56 13.17 228.48"/><polygon class="cls-7" points="13.17 243.39 27.93 245 13.17 247.22 13.17 243.39"/><path class="cls-8" d="M72.57,230.92c22.83-.93,45.84-1.08,68.68,0-22.84,1.07-45.85.92-68.68,0Z"/><path class="cls-8" d="M56.26,245.41c22.83-.93,45.84-1.08,68.68,0-22.84,1.07-45.85.92-68.68,0Z"/><polygon class="cls-9" points="13.17 228.48 8.81 228.29 13.17 232.56 13.17 228.48"/><polygon class="cls-9" points="13.17 243.39 9.8 243.12 13.17 247.22 13.17 243.39"/><polygon class="cls-5" points="13.25 307 2.99 297.99 2.99 259.42 13.25 266.64 13.25 307"/><path class="cls-6" d="M13.17,309.39H177.53a11.58,11.58,0,0,0,11.59-11.58V278.13a11.58,11.58,0,0,0-11.59-11.58H13.17Z"/><polygon class="cls-7" points="13.17 277.26 30.7 278.98 13.17 281.34 13.17 277.26"/><polygon class="cls-7" points="13.17 292.18 27.93 293.79 13.17 296.01 13.17 292.18"/><path class="cls-8" d="M72.57,279.71c22.83-.93,45.84-1.08,68.68,0-22.84,1.07-45.85.92-68.68,0Z"/><path class="cls-8" d="M56.26,294.19c22.83-.92,45.84-1.07,68.68,0-22.84,1.08-45.85.93-68.68,0Z"/><polygon class="cls-9" points="13.17 277.26 8.81 277.08 13.17 281.34 13.17 277.26"/><polygon class="cls-9" points="13.17 292.18 9.8 291.91 13.17 296.01 13.17 292.18"/><path class="cls-10" d="M177.53,311.56H10.85v-5.87H177.53a8.66,8.66,0,0,0,8.65-8.65V277.36a8.66,8.66,0,0,0-8.65-8.65H10.85v-5.87H177.53a14.54,14.54,0,0,1,14.52,14.52V297A14.54,14.54,0,0,1,177.53,311.56Z"/><path class="cls-11" d="M177.53,262.84h-11v5.87h11a8.66,8.66,0,0,1,8.65,8.65V297a8.66,8.66,0,0,1-8.65,8.65h-11v5.87h11A14.54,14.54,0,0,0,192.05,297V277.36A14.54,14.54,0,0,0,177.53,262.84Z"/><polygon class="cls-12" points="189.75 269.55 182.99 259.53 166.49 259.53 166.49 265.72 189.75 269.55"/><path class="cls-13" d="M177.53,263.54H10.85v-5.87H177.53a8.66,8.66,0,0,0,8.65-8.65V229.34a8.66,8.66,0,0,0-8.65-8.65H10.85v-5.86H177.53a14.53,14.53,0,0,1,14.52,14.51V249A14.53,14.53,0,0,1,177.53,263.54Z"/><path class="cls-14" d="M189.09,220.6h0l-.07-.07a14.51,14.51,0,0,0-3.05-3l-9-8.75h0a14.45,14.45,0,0,0-10.32-4.32H153.85c2.73,3.51,12.64,16.18,12.64,16.18h8.84c4.95,0,5.87.83,5.87.83a8.65,8.65,0,0,1,5,7.82V249a8.66,8.66,0,0,1-8.65,8.65h-11v5.87h11A14.53,14.53,0,0,0,192.05,249V229.34A14.41,14.41,0,0,0,189.09,220.6Z"/><polygon class="cls-13" points="10.85 220.69 0 210.32 0 204.5 10.85 214.83 10.85 220.69"/><polygon class="cls-13" points="10.85 257.67 0 247.35 0 253.22 10.85 263.54 10.85 257.67"/><polygon class="cls-10" points="10.85 268.71 0 258.34 0 253.22 10.85 263.54 10.85 268.71"/><polygon class="cls-10" points="10.85 305.69 0 295.37 0 301.24 10.85 311.56 10.85 305.69"/><path class="cls-15" d="M368.71,284c-8.06-9.46-18.31-17.69-19.46-30.82-.34-3.87-1.45-10.25,1.3-13.56,3.14-3.79,9.26-.49,12.57,1.3a11.32,11.32,0,0,1,4.46,4.8c-3.44-27.17-3.65-45.14,6.15-54.62,11.65-11.28,18.16,6.44,21.59,20,1.34-24.75,39.05-51.11,49.42-42.55,9.81,8.1-11.36,24.43-22,58.17,33-31.06,56.41-11.6,20.7,13.79-6.38,6.3-14.2,10.14-27.9,29.69,16.35-12.35,39,1.26,13.89,12.81-3.63,1.67-19.2,9.65-19.93,12.26-1.71,6.13-6.77,8.86-12.83,9.14a59.57,59.57,0,0,1-12.66-.52c-6.25-1-7.21-8.25-10-12.78A56.15,56.15,0,0,0,368.71,284Z"/><path class="cls-16" d="M436.67,175.92c-4,2.53-7.32,6.35-10.3,10a107.5,107.5,0,0,0-10.16,15.68c-1.93,3.32-3.89,7.71-5.59,11.17-1.48,3.59-3.45,7.93-4.78,11.55l-3.56,9.8c-2.21,6.9-4.72,14.93-6.48,22-1.37,4.71-2.82,11.4-3.9,16.23-.49,2.2-1.39,5.92-1.76,8.15l-3.07,16.41a.7.7,0,1,1-1.38-.24l3.13-16.44c.39-2.25,1.28-5.9,1.79-8.17,2.34-10.6,5.29-22,8.64-32.34.43-1.36,1.48-4.68,1.9-6s3.09-8.43,3.61-9.82c1.34-3.63,3.35-8,4.83-11.6a155.4,155.4,0,0,1,12.22-22l2.47-3.4.62-.85c1.05-1.22,2.31-2.84,3.38-4a40.26,40.26,0,0,1,7.93-7,.48.48,0,0,1,.67.15.51.51,0,0,1-.21.71Z"/><path class="cls-17" d="M379.9,214s11.71,17.07,14.42,45"/><path class="cls-17" d="M449.07,220.08s-31.23,9.81-57.64,51"/><path class="cls-17" d="M428.76,275.42s-19.28,0-40.71,15.9"/><path class="cls-17" d="M359.72,249.86s16,13.07,26.7,44.46"/><path class="cls-15" d="M364.15,263.74A175.37,175.37,0,0,1,409,163.25c10.54-11.51,23-22.13,28.55-36.71a15.27,15.27,0,0,0,1.28-7.21c-.65-5.2-5.66-8.86-10.72-10.25-9.09-2.5-19.06.36-26.74,5.84S388,128.25,383.26,136.41c-21,36.12-25.61,79.12-29.8,120.68"/><path class="cls-16" d="M418,121.8c-29.33,32.44-46.42,74.07-56.36,116.2-.62,2.92-2.22,10.25-2.88,13.22l-1.2-.22,1.59-8.91C367.65,198.19,384.79,153,418,121.8Z"/><path class="cls-15" d="M80.43,263.74A175.37,175.37,0,0,0,35.61,163.25c-10.54-11.51-23-22.13-28.55-36.71a15.27,15.27,0,0,1-1.28-7.21c.65-5.2,5.66-8.86,10.71-10.25,9.1-2.5,19.07.36,26.75,5.84s13.34,13.33,18.08,21.49c21,36.12,25.61,79.12,29.8,120.68"/><path class="cls-16" d="M26.59,121.8C59.79,153,76.93,198.19,85.44,242.09L87,251l-1.2.22c-.67-3-2.27-10.32-2.88-13.22-9.94-42.13-27-83.76-56.36-116.2Z"/><path class="cls-18" d="M374.06,57.74c5.51,4.84,10.91,9.78,16.16,14.89s10.6,10.24,14.64,16.55l-.34-.31A78.8,78.8,0,0,1,422.06,100a45.38,45.38,0,0,1,7.07,7.71c4.14,5.58,6.46,12.33,9.4,18.48.25.35.1.89,1.23.81.48,0,.54.19.72.38,6.2,7,10.64,15.48,17,22.22l-13,9.69a50.79,50.79,0,0,1-4.41-11c-1.74-6.25-3.49-12.37-4.2-18.79a.84.84,0,0,1,.17-.79c.76-.85.23-1.09.13-1.52-2.63-6.38-4.47-13-8.39-18.65-5.76-8.6-14.81-14.31-24.18-18.4-3.83-6.15-9.33-11.37-14.43-16.54s-10.56-10.1-16-14.94l.82-.94Z"/><path class="cls-18" d="M441.3,128.39l-4.87,2.14a1.33,1.33,0,0,1-1.76-.68h0a1.35,1.35,0,0,1,.68-1.76l4.88-2.14a1.33,1.33,0,0,1,1.75.68h0A1.34,1.34,0,0,1,441.3,128.39Z"/><polygon class="cls-11" points="430.45 93.01 370.11 87.6 314.11 35.51 315.47 31.98 376.87 37.62 431.81 89.48 430.45 93.01"/><polygon class="cls-19" points="430.45 93.01 369.03 88.67 314.11 35.51 374.57 41.07 430.45 93.01"/><path class="cls-20" d="M384.37,50.18a41.52,41.52,0,0,1-5.17,19.13c-3.21,6.24-7.67,12.33-13.74,15.91L369,88.67,430.45,93Z"/><path class="cls-21" d="M355.48,100.49c20.54,9.27,38.77,13.26,40.73,8.93S383.1,94.05,362.57,84.79s-38.78-13.27-40.73-8.93S334.94,91.23,355.48,100.49Z"/><path class="cls-16" d="M78.23,304.38a11.56,11.56,0,0,1-11.55-11.55V96.75a18.12,18.12,0,0,1,18.11-18.1H367.48a18.12,18.12,0,0,1,18.1,18.1V292.83A11.56,11.56,0,0,1,374,304.38Z"/><path class="cls-22" d="M367.48,81.65a15.1,15.1,0,0,1,15.1,15.1V292.83a8.55,8.55,0,0,1-8.55,8.55H78.23a8.55,8.55,0,0,1-8.55-8.55V96.75a15.1,15.1,0,0,1,15.11-15.1H367.48m0-6H84.79a21.13,21.13,0,0,0-21.11,21.1V292.83a14.57,14.57,0,0,0,14.55,14.55H374a14.57,14.57,0,0,0,14.55-14.55V96.75a21.12,21.12,0,0,0-21.1-21.1Z"/><rect class="cls-21" x="69.68" y="81.65" width="312.9" height="219.73" rx="15.1"/><path class="cls-4" d="M373.19,275.68V96.75A5.72,5.72,0,0,0,367.47,91H84.79a5.72,5.72,0,0,0-5.72,5.71V275.68Z"/><path class="cls-19" d="M354.14,142.61a31,31,0,0,0,2.55-12.49c0-13.58-8.21-24.58-18.34-24.58S320,116.54,320,130.12a31,31,0,0,0,2.55,12.49Z"/><rect class="cls-19" x="320" y="129.3" width="36.69" height="15.7"/><path class="cls-16" d="M323.7,275.68H95.57V124.24h0a18.7,18.7,0,0,1,18.7-18.7h226s-16.56,1.08-16.56,19.15Z"/><text class="cls-23" transform="translate(200.45 144.79)">ONLINE<tspan x="0" y="14.4">CE</tspan><tspan class="cls-24" x="12.86" y="14.4">R</tspan><tspan class="cls-25" x="19.43" y="14.4">TIFI</tspan><tspan class="cls-26" x="36.97" y="14.4">C</tspan><tspan class="cls-27" x="43.98" y="14.4">A</tspan><tspan x="50.4" y="14.4">TION</tspan></text><rect class="cls-28" x="201.74" y="177.65" width="92.78" height="2.67"/><rect class="cls-19" x="191.11" y="188.8" width="118.06" height="2.67"/><rect class="cls-19" x="191.11" y="199.95" width="118.06" height="2.67"/><rect class="cls-19" x="191.11" y="211.11" width="118.06" height="2.67"/><rect class="cls-19" x="191.11" y="222.26" width="118.06" height="2.67"/><rect class="cls-19" x="110.1" y="233.41" width="199.07" height="2.67"/><rect class="cls-19" x="110.1" y="244.56" width="199.07" height="2.67"/><rect class="cls-19" x="110.1" y="255.71" width="199.07" height="2.67"/><path class="cls-10" d="M166.53,211.94l-9.23-1a2.25,2.25,0,0,0-1.89.68L149,218.3a2.29,2.29,0,0,1-3.8-.82l-14.76-40.81,23.78-8.6,14.76,40.82A2.29,2.29,0,0,1,166.53,211.94Z"/><path class="cls-10" d="M106.13,211.94l9.23-1a2.26,2.26,0,0,1,1.89.68l6.46,6.67a2.29,2.29,0,0,0,3.8-.82l14.76-40.81-23.78-8.6-14.76,40.82A2.29,2.29,0,0,0,106.13,211.94Z"/><circle class="cls-14" cx="136.78" cy="155.86" r="34.78" transform="translate(-49.53 64.82) rotate(-22.69)"/><circle class="cls-19" cx="136.78" cy="155.86" r="22.82" transform="translate(-48.71 63.15) rotate(-22.17)"/><circle class="cls-29" cx="136.78" cy="155.86" r="17.88"/><path class="cls-14" d="M126.65,128.46h20.29l-7.12-9.26a3.81,3.81,0,0,0-6,0Z"/><path class="cls-14" d="M146.75,128.39l15.46,13.14.57-11.67a3.82,3.82,0,0,0-4.61-3.92Z"/><path class="cls-14" d="M162.11,141.35l3.28,20,8-8.52a3.82,3.82,0,0,0-1-6Z"/><path class="cls-14" d="M165.43,161.17,155,178.55l11.61-1.32a3.82,3.82,0,0,0,3.12-5.19Z"/><path class="cls-14" d="M155.12,178.42l-19.22,6.47,9.7,6.51a3.81,3.81,0,0,0,5.73-1.93Z"/><path class="cls-14" d="M136.1,184.9l-18.84-7.52,3.18,11.24a3.81,3.81,0,0,0,5.62,2.24Z"/><path class="cls-14" d="M117.41,177.52l-9.49-17.93-4.86,10.62a3.82,3.82,0,0,0,2.84,5.35Z"/><path class="cls-14" d="M107.94,159.79,112.32,140l-10.58,5a3.82,3.82,0,0,0-1.3,5.91Z"/><path class="cls-14" d="M112.21,140.15l16.16-12.27-11.27-3.07a3.82,3.82,0,0,0-4.82,3.66Z"/><path class="cls-14" d="M136.31,126.52l19.07,6.94-3.53-11.13a3.81,3.81,0,0,0-5.68-2.07Z"/><path class="cls-14" d="M155.22,133.33l10,17.63,4.52-10.77a3.81,3.81,0,0,0-3-5.25Z"/><path class="cls-14" d="M165.22,150.76l-3.76,19.94,10.42-5.28a3.82,3.82,0,0,0,1.12-5.95Z"/><path class="cls-14" d="M161.56,170.52l-15.78,12.75L157.14,186a3.82,3.82,0,0,0,4.71-3.81Z"/><path class="cls-14" d="M146,183.21l-20.28-.5,6.89,9.43a3.81,3.81,0,0,0,6,.15Z"/><path class="cls-14" d="M125.89,182.79l-15.14-13.51-.85,11.65a3.8,3.8,0,0,0,4.51,4Z"/><path class="cls-14" d="M110.85,169.46l-2.79-20.1-8.19,8.33a3.81,3.81,0,0,0,.83,6Z"/><path class="cls-14" d="M108,149.56l10.89-17.12-11.63,1a3.82,3.82,0,0,0-3.25,5.11Z"/><path class="cls-14" d="M118.74,132.57l19.38-6-9.54-6.74a3.81,3.81,0,0,0-5.78,1.79Z"/><path class="cls-22" d="M69.68,284.58v13.14a3.66,3.66,0,0,0,3.65,3.66h305.6a3.66,3.66,0,0,0,3.65-3.66V284.58Z"/><path class="cls-30" d="M373.19,264.26V96.75A5.72,5.72,0,0,0,367.47,91H84.79a5.72,5.72,0,0,0-5.72,5.71V264.26Z"/><g class="cls-31"><path class="cls-16" d="M81.52,227.22,217.7,91H150.64L79.07,162.61v67.06Z"/><path class="cls-16" d="M169.12,237.23,315.31,91H297.67L113,275.68h17.64Z"/><path class="cls-16" d="M373.19,215.11V142.77L240.94,275l71.5,1.22Z"/></g><polygon class="cls-22" points="419.96 316.46 388.43 294.74 63.83 294.74 32.3 316.46 419.96 316.46"/><polygon class="cls-11" points="78.49 305.11 65.96 305.11 63.3 307.63 76.05 307.63 78.49 305.11"/><polygon class="cls-11" points="96.02 305.11 80.54 305.11 78.13 307.63 93.87 307.63 96.02 305.11"/><polygon class="cls-11" points="134.22 305.11 119.36 305.11 117.6 307.63 132.71 307.63 134.22 305.11"/><polygon class="cls-11" points="173.04 305.11 155.68 305.11 154.53 307.63 172.18 307.63 173.04 305.11"/><polygon class="cls-11" points="191.19 305.11 175.08 305.11 174.27 307.63 190.65 307.63 191.19 305.11"/><polygon class="cls-11" points="211.23 305.11 193.24 305.11 192.73 307.63 211.02 307.63 211.23 305.11"/><polygon class="cls-11" points="253.8 305.11 233.94 305.11 234.12 307.63 254.32 307.63 253.8 305.11"/><polygon class="cls-11" points="276.34 305.11 255.85 305.11 256.4 307.63 277.24 307.63 276.34 305.11"/><polygon class="cls-11" points="316.42 305.11 299.05 305.11 300.33 307.63 317.98 307.63 316.42 305.11"/><polygon class="cls-11" points="336.45 305.11 318.46 305.11 320.07 307.63 338.36 307.63 336.45 305.11"/><polygon class="cls-11" points="357.11 305.11 338.5 305.11 340.44 307.63 359.37 307.63 357.11 305.11"/><polygon class="cls-11" points="359.16 305.11 361.45 307.63 383.66 307.63 381 305.11 359.16 305.11"/><polygon class="cls-11" points="297.01 305.11 278.39 305.11 279.32 307.63 298.25 307.63 297.01 305.11"/><polygon class="cls-11" points="231.89 305.11 213.28 305.11 213.1 307.63 232.03 307.63 231.89 305.11"/><polygon class="cls-11" points="153.63 305.11 136.26 305.11 134.79 307.63 152.45 307.63 153.63 305.11"/><polygon class="cls-11" points="117.31 305.11 98.07 305.11 95.96 307.63 115.52 307.63 117.31 305.11"/><polygon class="cls-11" points="93.13 308.49 77.3 308.49 74.31 311.62 90.47 311.62 93.13 308.49"/><polygon class="cls-11" points="114.9 308.49 95.23 308.49 92.6 311.62 112.68 311.62 114.9 308.49"/><polygon class="cls-11" points="132.19 308.49 117 308.49 114.82 311.62 130.32 311.62 132.19 308.49"/><polygon class="cls-11" points="171.89 308.49 154.14 308.49 152.72 311.62 170.84 311.62 171.89 308.49"/><polygon class="cls-11" points="210.95 308.49 192.56 308.49 191.92 311.62 210.69 311.62 210.95 308.49"/><polygon class="cls-11" points="232.08 308.49 213.05 308.49 212.83 311.62 232.26 311.62 232.08 308.49"/><polygon class="cls-11" points="254.49 308.49 234.18 308.49 234.4 311.62 255.13 311.62 254.49 308.49"/><polygon class="cls-11" points="277.54 308.49 256.59 308.49 257.26 311.62 278.65 311.62 277.54 308.49"/><polygon class="cls-11" points="298.67 308.49 279.64 308.49 280.79 311.62 300.21 311.62 298.67 308.49"/><polygon class="cls-11" points="318.52 308.49 300.77 308.49 302.35 311.62 320.47 311.62 318.52 308.49"/><polygon class="cls-11" points="339.01 308.49 320.62 308.49 322.61 311.62 341.38 311.62 339.01 308.49"/><polygon class="cls-11" points="360.14 308.49 341.11 308.49 343.51 311.62 362.94 311.62 360.14 308.49"/><polygon class="cls-11" points="362.24 308.49 365.08 311.62 387.87 311.62 384.58 308.49 362.24 308.49"/><polygon class="cls-11" points="190.46 308.49 173.99 308.49 172.97 311.62 189.78 311.62 190.46 308.49"/><polygon class="cls-11" points="152.04 308.49 134.29 308.49 132.46 311.62 150.58 311.62 152.04 308.49"/><polygon class="cls-11" points="75.2 308.49 62.39 308.49 59.09 311.62 72.17 311.62 75.2 308.49"/><polygon class="cls-11" points="82.35 301.14 70.15 301.14 66.83 304.28 79.3 304.28 82.35 301.14"/><polygon class="cls-11" points="120.13 301.14 101.41 301.14 98.77 304.28 117.9 304.28 120.13 301.14"/><polygon class="cls-11" points="136.59 301.14 122.13 301.14 119.94 304.28 134.71 304.28 136.59 301.14"/><polygon class="cls-11" points="155.48 301.14 138.58 301.14 136.75 304.28 154.01 304.28 155.48 301.14"/><polygon class="cls-11" points="174.38 301.14 157.48 301.14 156.05 304.28 173.32 304.28 174.38 301.14"/><polygon class="cls-11" points="192.05 301.14 176.37 301.14 175.35 304.28 191.37 304.28 192.05 301.14"/><polygon class="cls-11" points="211.55 301.14 194.04 301.14 193.41 304.28 211.3 304.28 211.55 301.14"/><polygon class="cls-11" points="231.67 301.14 213.55 301.14 213.33 304.28 231.84 304.28 231.67 301.14"/><polygon class="cls-11" points="253 301.14 233.66 301.14 233.88 304.28 253.64 304.28 253 301.14"/><polygon class="cls-11" points="295.05 301.14 276.93 301.14 278.09 304.28 296.6 304.28 295.05 301.14"/><polygon class="cls-11" points="333.45 301.14 315.94 301.14 317.94 304.28 335.82 304.28 333.45 301.14"/><polygon class="cls-11" points="353.56 301.14 335.44 301.14 337.86 304.28 356.37 304.28 353.56 301.14"/><polygon class="cls-11" points="355.56 301.14 358.41 304.28 380.13 304.28 376.82 301.14 355.56 301.14"/><polygon class="cls-11" points="313.95 301.14 297.05 301.14 298.63 304.28 315.9 304.28 313.95 301.14"/><polygon class="cls-11" points="274.94 301.14 254.99 301.14 255.67 304.28 276.05 304.28 274.94 301.14"/><polygon class="cls-11" points="99.41 301.14 84.34 301.14 81.33 304.28 96.73 304.28 99.41 301.14"/><polygon class="cls-11" points="101.99 298.12 87.24 298.12 85.09 300.35 100.08 300.35 101.99 298.12"/><polygon class="cls-11" points="122.28 298.12 103.95 298.12 102.06 300.35 120.69 300.35 122.28 298.12"/><polygon class="cls-11" points="138.4 298.12 124.24 298.12 122.67 300.35 137.06 300.35 138.4 298.12"/><polygon class="cls-11" points="156.9 298.12 140.35 298.12 139.04 300.35 155.85 300.35 156.9 298.12"/><polygon class="cls-11" points="175.4 298.12 158.85 298.12 157.83 300.35 174.64 300.35 175.4 298.12"/><polygon class="cls-11" points="192.71 298.12 177.35 298.12 176.63 300.35 192.22 300.35 192.71 298.12"/><polygon class="cls-11" points="211.8 298.12 194.66 298.12 194.2 300.35 211.62 300.35 211.8 298.12"/><polygon class="cls-11" points="231.5 298.12 213.75 298.12 213.6 300.35 231.62 300.35 231.5 298.12"/><polygon class="cls-11" points="252.38 298.12 233.45 298.12 233.61 300.35 252.84 300.35 252.38 298.12"/><polygon class="cls-11" points="273.87 298.12 254.34 298.12 254.82 300.35 274.66 300.35 273.87 298.12"/><polygon class="cls-11" points="293.56 298.12 275.82 298.12 276.64 300.35 294.67 300.35 293.56 298.12"/><polygon class="cls-11" points="312.06 298.12 295.51 298.12 296.65 300.35 313.46 300.35 312.06 298.12"/><polygon class="cls-11" points="331.16 298.12 314.01 298.12 315.44 300.35 332.85 300.35 331.16 298.12"/><polygon class="cls-11" points="350.85 298.12 333.11 298.12 334.84 300.35 352.86 300.35 350.85 298.12"/><polygon class="cls-11" points="352.81 298.12 354.84 300.35 375.99 300.35 373.62 298.12 352.81 298.12"/><polygon class="cls-11" points="85.28 298.12 73.34 298.12 70.98 300.35 83.11 300.35 85.28 298.12"/><path class="cls-11" d="M35.74,315H416.52a4.85,4.85,0,0,1,4.85,4.85v7.76a11.87,11.87,0,0,1-11.87,11.87H42.75a11.87,11.87,0,0,1-11.87-11.87v-7.76A4.85,4.85,0,0,1,35.74,315Z"/><path class="cls-22" d="M373.65,58.21c-26.46-13.51-41.5-6-41.5-6L321.84,75.86c2-4.34,20.19-.34,40.73,8.93,19.91,9,34.68,19.62,33.77,24.22a1,1,0,0,0,.13-.22l9.31-21.94S400.12,71.72,373.65,58.21Z"/><path class="cls-11" d="M382.1,63c-3.7,9.09-8.94,17.46-15.79,23.53,18,8.58,30.88,18.19,30,22.49a1,1,0,0,0,.13-.22l9.31-21.94S401.36,75.05,382.1,63Z"/></g></g></g></svg>