<svg xmlns="http://www.w3.org/2000/svg" viewBox="0 0 445.01 444.47"><defs><style>.cls-1{fill:#f5f5f5;}.cls-2{fill:#e6e6e6;}.cls-3{fill:#ba68c8;}.cls-4{opacity:0.4;}.cls-5{fill:#fff;}.cls-6{fill:#37474f;}.cls-7{fill:#455a64;}.cls-8{fill:#263238;}.cls-9{fill:#e0e0e0;}.cls-10{opacity:0.2;}.cls-11{opacity:0.5;}.cls-12{opacity:0.6;}.cls-13{opacity:0.7;}.cls-14{fill:#ffa8a7;}.cls-15{fill:#f28f8f;}.cls-16{fill:#ebebeb;}.cls-17,.cls-20{fill:#fafafa;}.cls-18{fill:#f0f0f0;}.cls-19{opacity:0.3;}.cls-20{font-size:25.8px;font-family:Montserrat-Bold, Montserrat Bold;font-weight:700;}</style></defs><g id="Layer_2" data-name="Layer 2"><g id="Screen"><ellipse class="cls-1" cx="222.5" cy="316.01" rx="222.5" ry="128.46"/><ellipse class="cls-2" cx="68.08" cy="327.27" rx="24.63" ry="14.22"/><path class="cls-2" d="M257.76,251.05,95.89,344.51a4,4,0,0,0,0,7L191,406.41a15.73,15.73,0,0,0,15.73,0L368.63,313a4,4,0,0,0,0-7l-95.14-54.92A15.73,15.73,0,0,0,257.76,251.05Z"/><path class="cls-2" d="M209.16,252l-64.81,37.42a8.55,8.55,0,0,0,0,14.81L177,323a14.18,14.18,0,0,0,14.2,0L256,285.62a8.56,8.56,0,0,0,0-14.82L223.36,252A14.18,14.18,0,0,0,209.16,252Z"/><path class="cls-3" d="M69.38,290.47s-15.22-14.86-6.56-39.76c4.86-14,20.94-24.2,30.1-25.16a42.58,42.58,0,0,0-7.15,12.07l-11.54,7.67L84.83,242,82.57,251s-9.86,6-11.32,7.27l10.63-2.78S81.07,281.23,69.38,290.47Z"/><path class="cls-4" d="M69.38,290.47s-15.22-14.86-6.56-39.76c4.86-14,20.94-24.2,30.1-25.16a42.58,42.58,0,0,0-7.15,12.07l-11.54,7.67L84.83,242,82.57,251s-9.86,6-11.32,7.27l10.63-2.78S81.07,281.23,69.38,290.47Z"/><path class="cls-5" d="M69.38,290.47s-7.88-31.1,3.78-49.24C73.16,241.23,59.49,257.24,69.38,290.47Z"/><path class="cls-6" d="M86.8,294.68l-18.62-.23H68l-18.63.23s-.2,22.95,6.86,32.28h0c2,2.48,6.53,4.22,11.86,4.22S78,329.44,80,327C87,317.6,86.8,294.68,86.8,294.68Z"/><ellipse class="cls-7" cx="68.08" cy="294.68" rx="18.72" ry="10.05"/><path class="cls-8" d="M68.08,292c6.44,0,11.9,2.06,13.82,4.92a4.08,4.08,0,0,0,.74-2.26c0-4-6.52-7.18-14.56-7.18s-14.56,3.21-14.56,7.18a4,4,0,0,0,.75,2.26C56.19,294.08,61.64,292,68.08,292Z"/><ellipse class="cls-9" cx="68.08" cy="296.94" rx="13.81" ry="4.93"/><path class="cls-3" d="M68.31,298.19s-7.21-.28-13.4-9.87c-2.55-3.95-3.78-6-3.78-6l10-.75-11.26-2.82-5.32-8.14L54,269.9s-7-2.44-11.94-2.47c0,0-8.62-15.24-11.15-17.41A48.92,48.92,0,0,1,64.93,267C79.11,283.71,70.41,298.61,68.31,298.19Z"/><path class="cls-5" d="M68.31,298.19S72.82,271,44,254.66C44,254.66,73.91,269,68.31,298.19Z"/><path class="cls-3" d="M68.31,298.19s6.54.42,13-7.64c2.67-3.32,4-5.08,4-5.08l-9-1.62,10.43-1.48,5.56-6.85L83.93,274s6.52-1.55,11-1.11c0,0,9.21-12.93,11.69-14.65A44.33,44.33,0,0,0,74.3,270.32C59.93,284.11,66.37,298.37,68.31,298.19Z"/><path class="cls-10" d="M68.31,298.19s6.54.42,13-7.64c2.67-3.32,4-5.08,4-5.08l-9-1.62,10.43-1.48,5.56-6.85L83.93,274s6.52-1.55,11-1.11c0,0,9.21-12.93,11.69-14.65A44.33,44.33,0,0,0,74.3,270.32C59.93,284.11,66.37,298.37,68.31,298.19Z"/><path class="cls-5" d="M68.31,298.19s-1.51-24.95,26-37C94.31,261.2,66,271.34,68.31,298.19Z"/><path class="cls-8" d="M188.66,243.84l13.91,84.89a2.64,2.64,0,0,0,2.61,2.22h0a2.64,2.64,0,0,0,2.63-2.94l-9.76-87.57Z"/><path class="cls-8" d="M236.68,215.29l13.91,84.89a2.64,2.64,0,0,0,2.61,2.22h0a2.64,2.64,0,0,0,2.63-2.94l-9.76-87.57Z"/><path class="cls-8" d="M167.3,224l-13.73,73.16a2.22,2.22,0,0,1-2.19,1.82,2.24,2.24,0,0,1-2.21-2.56l10.14-67.8Z"/><path class="cls-8" d="M215.86,196.7l-13.65,72.71a2.21,2.21,0,0,1-2.19,1.82,2.24,2.24,0,0,1-2.21-2.56l10.07-67.36Z"/><path class="cls-3" d="M211.9,191.17a19.53,19.53,0,0,1-11.49-15.87c-2.21-22.28-10.06-68.18-36.64-52.9C131,141.26,142.71,196,147.48,213.59a23.58,23.58,0,0,0,6,10.49c5.92,6,18.2,16.25,39.07,25a12.26,12.26,0,0,0,8.08.48c10.37-3,37.46-12,51-29.3a4.71,4.71,0,0,0-.78-6.6C245.38,209.32,233,200.58,211.9,191.17Z"/><path class="cls-11" d="M211.9,191.17a19.53,19.53,0,0,1-11.49-15.87c-2.21-22.28-10.06-68.18-36.64-52.9C131,141.26,142.71,196,147.48,213.59a23.58,23.58,0,0,0,6,10.49c5.92,6,18.2,16.25,39.07,25a12.26,12.26,0,0,0,8.08.48c10.37-3,37.46-12,51-29.3a4.71,4.71,0,0,0-.78-6.6C245.38,209.32,233,200.58,211.9,191.17Z"/><path class="cls-3" d="M252.61,217.13a4.7,4.7,0,0,1-1,3.14c-.72.92-1.49,1.82-2.28,2.69h0c-.43.48-.88.95-1.33,1.42l0,0c-.45.46-.91.91-1.37,1.36l-.05,0c-.46.45-.94.89-1.42,1.32l0,0c-.49.44-1,.87-1.48,1.29l0,0c-7.66,6.43-17,11.32-25.27,14.86h0l-1.54.64-.16.07-1.42.57-.25.1-1.32.52-.3.11-1.23.47-.36.13-1.13.41-.41.15-1.05.37-.44.16-1,.33-.47.16-.88.29-.5.16-.79.26-.53.17-.69.21-.57.18-.58.18-.7.2-.36.11-1,.29a12.26,12.26,0,0,1-8.08-.48c-20.87-8.76-33.15-19-39.07-25a23.58,23.58,0,0,1-6-10.49C142.71,196,131,141.26,163.77,122.4c.58-.33,1.15-.63,1.72-.91l.36-.17c.56-.27,1.11-.51,1.64-.71l.16-.06q.78-.28,1.53-.51l.23-.07q.81-.23,1.59-.36l.13,0a15.5,15.5,0,0,1,3.14-.23h.06a13.33,13.33,0,0,1,3,.46h0c-5.25-2.32-11.65-2.21-18,1.44-32.81,18.86-21.06,73.62-16.29,91.18l.8,3a28.57,28.57,0,0,0,10.24,15.31l8.52,6.5h0a133.74,133.74,0,0,0,30,17.06,12.19,12.19,0,0,0,8.1.49c10.37-3,37.47-12,51-29.3a4.64,4.64,0,0,0,1-2.57h0v-5.83Z"/><path class="cls-12" d="M252.61,217.13a4.7,4.7,0,0,1-1,3.14c-.72.92-1.49,1.82-2.28,2.69h0c-.43.48-.88.95-1.33,1.42l0,0c-.45.46-.91.91-1.37,1.36l-.05,0c-.46.45-.94.89-1.42,1.32l0,0c-.49.44-1,.87-1.48,1.29l0,0c-7.66,6.43-17,11.32-25.27,14.86h0l-1.54.64-.16.07-1.42.57-.25.1-1.32.52-.3.11-1.23.47-.36.13-1.13.41-.41.15-1.05.37-.44.16-1,.33-.47.16-.88.29-.5.16-.79.26-.53.17-.69.21-.57.18-.58.18-.7.2-.36.11-1,.29a12.26,12.26,0,0,1-8.08-.48c-20.87-8.76-33.15-19-39.07-25a23.58,23.58,0,0,1-6-10.49C142.71,196,131,141.26,163.77,122.4c.58-.33,1.15-.63,1.72-.91l.36-.17c.56-.27,1.11-.51,1.64-.71l.16-.06q.78-.28,1.53-.51l.23-.07q.81-.23,1.59-.36l.13,0a15.5,15.5,0,0,1,3.14-.23h.06a13.33,13.33,0,0,1,3,.46h0c-5.25-2.32-11.65-2.21-18,1.44-32.81,18.86-21.06,73.62-16.29,91.18l.8,3a28.57,28.57,0,0,0,10.24,15.31l8.52,6.5h0a133.74,133.74,0,0,0,30,17.06,12.19,12.19,0,0,0,8.1.49c10.37-3,37.47-12,51-29.3a4.64,4.64,0,0,0,1-2.57h0v-5.83Z"/><path class="cls-3" d="M270.72,279.79c-2.25-14.28-5.11-37.12-6.76-50.63-.11-.88-.26-1.76-.45-2.63a28,28,0,0,0-13.21-17.9l-33.66-20-22.85-12s-6.08,17.62,1,28.39c5.89,9,31.84,20.09,39.56,23.83s7.88,4.77,7.72,9.78S241.88,250,251.37,270c2.72,5.74,4.62,10,5.94,13.33A21.08,21.08,0,0,0,270.72,279.79Z"/><path class="cls-13" d="M270.72,279.79c-2.25-14.28-5.11-37.12-6.76-50.63a28.57,28.57,0,0,0-.76-3.92,27.86,27.86,0,0,0-12.85-16.57L216.64,188.6l-22.85-12s-6.08,17.62,1,28.39c5.89,9,31.84,20.09,39.56,23.83s7.88,4.77,7.72,9.78S241.88,250,251.37,270c2.72,5.74,4.62,10,5.94,13.33A21.08,21.08,0,0,0,270.72,279.79Z"/><path class="cls-14" d="M260.31,294.92a3.39,3.39,0,0,0,.4,1.71,24,24,0,0,0,5.07,6c4.53,4.09,19.56,20.09,24.85,10.16,0,0-15.53-14.87-17.59-21a102.85,102.85,0,0,1-2.32-12,21.08,21.08,0,0,1-13.41,3.49C260.23,290.51,260.36,292.87,260.31,294.92Z"/><path class="cls-7" d="M276.46,294l-.43-1.29a1.94,1.94,0,0,0-2.41-1.24l-6.3,1.94a1.93,1.93,0,0,0-1.36,1.85v.62a1.13,1.13,0,0,1-1.13,1.13h0a5.79,5.79,0,0,1-3.65-1.31l-.87-.73v-2.2h0a3.88,3.88,0,0,0-1.76,3.44c.08,1.49.15,3.32.1,4-.1,1.31-1.34,6.82.13,8.45s4.77,1.82,8.85,1.38,8.54,3.57,12.32,5.06,19.44,4.69,19.4-5.32c0-2.55-2.53-3.59-5-4.5s-11.42-4-13.71-5.94a21.78,21.78,0,0,1-2.55-2.51A8.9,8.9,0,0,1,276.46,294Z"/><path class="cls-8" d="M280,315.09c-3.78-1.49-8.24-5.51-12.32-5.06s-7.38.24-8.85-1.38a3.84,3.84,0,0,1-.69-2.31c-.08,1.54,0,3,.69,3.74,1.47,1.62,4.77,1.82,8.85,1.38s8.54,3.57,12.32,5.06,19.44,4.69,19.4-5.32a2.82,2.82,0,0,0-.05-.43C298.31,319.55,283.6,316.52,280,315.09Z"/><path class="cls-3" d="M240.14,297.14c-2.25-14.29-5.11-37.13-6.76-50.63a28.42,28.42,0,0,0-9.82-18.24l-40.39-34.35-21.58-.37s-4.46,18,2.61,28.77c5.88,9,31.84,20.08,39.55,23.83s7.88,4.76,7.72,9.77-.16,11.39,9.32,31.37c2.72,5.74,4.62,10,6,13.33A21,21,0,0,0,240.14,297.14Z"/><path class="cls-13" d="M240.14,297.14c-2.25-14.29-5.11-37.13-6.76-50.63a28.42,28.42,0,0,0-9.82-18.24l-40.39-34.35-21.58-.37s-4.46,18,2.61,28.77c5.88,9,31.84,20.08,39.55,23.83s7.88,4.76,7.72,9.77-.16,11.39,9.32,31.37c2.72,5.74,4.62,10,6,13.33A21,21,0,0,0,240.14,297.14Z"/><path class="cls-14" d="M229.72,311c0,.6-.42,2.37.42,3,1.05.78,2.06,3.32,5.06,6,4.53,4.09,9.32-4.71,7.26-10.83a104.77,104.77,0,0,1-2.32-12,21,21,0,0,1-13.4,3.48C229.65,307.85,229.77,308.93,229.72,311Z"/><path class="cls-14" d="M203,119h0a13.21,13.21,0,0,1,14.61,8.86,57.36,57.36,0,0,1,2.73,13.21c1.17,13.85,1.49,20.78,1.49,20.78l13.92,6.31s-7.52.36-7,11l-17.33-4.37Z"/><path class="cls-3" d="M222.37,153.52c-2.05-15-2.87-22.85-4.63-26.58A13.47,13.47,0,0,0,203,119l5.24,41.2.67-.07a21.71,21.71,0,0,0,12.48-5.51Z"/><path class="cls-10" d="M222.37,153.52c-2.05-15-2.87-22.85-4.63-26.58A13.47,13.47,0,0,0,203,119l5.24,41.2.67-.07a21.71,21.71,0,0,0,12.48-5.51Z"/><path class="cls-15" d="M221.85,161.89a9.72,9.72,0,0,0-4.11,2.52s1.68-3.19,4-4.17Z"/><path class="cls-3" d="M169.6,131.18l15.56-7.53L198,119.22s10.27-3.28,12.9,10.41c2.16,11.26,2.44,54,2.44,54l-.23,4.68s-5.93,16.62-27.12,18-25.32-7.56-25.32-7.56S158.52,142.18,169.6,131.18Z"/><path class="cls-8" d="M218.63,85.48s4.81,12.32-1.83,17.75-4.34-16.38-4.34-16.38Z"/><path class="cls-7" d="M206.92,402.93a6.06,6.06,0,0,1-5.47,0c-1.5-.87-1.5-2.28,0-3.15a6,6,0,0,1,5.47,0C208.42,400.65,208.42,402.06,206.92,402.93Z"/><rect class="cls-6" x="200.33" y="308.31" width="7.72" height="92.96"/><ellipse class="cls-7" cx="116.37" cy="349.79" rx="3.86" ry="2.23"/><rect class="cls-8" x="112.52" y="256.74" width="7.72" height="92.96"/><path class="cls-7" d="M350.87,319.53a6,6,0,0,1-5.46,0c-1.51-.87-1.51-2.29,0-3.16a6,6,0,0,1,5.46,0C352.38,317.24,352.38,318.66,350.87,319.53Z"/><rect class="cls-6" x="344.28" y="224.9" width="7.72" height="92.96"/><path class="cls-7" d="M256.46,249.18a5.4,5.4,0,0,1-4.89,0c-1.36-.78-1.36-2.05,0-2.83a5.4,5.4,0,0,1,4.89,0C257.82,247.13,257.82,248.4,256.46,249.18Z"/><rect class="cls-7" x="250.56" y="170.11" width="6.93" height="77.58"/><polygon class="cls-8" points="112.51 241.34 112.51 259.84 204.2 312.77 204.2 294.28 112.51 241.34"/><polygon class="cls-6" points="352.01 208.94 204.2 294.28 204.2 312.77 352.01 227.44 352.01 208.94"/><polygon class="cls-7" points="260.32 156.01 112.51 241.34 204.2 294.28 352.01 208.94 260.32 156.01"/><polygon class="cls-16" points="186.16 213.59 219.78 233 275.68 200.68 242.06 180.87 186.16 213.59"/><polygon class="cls-9" points="216.16 208.07 228.78 200.79 220.87 196.22 208.26 203.5 216.16 208.07"/><polygon class="cls-9" points="221.21 228.16 204.22 218.16 237.43 198.06 221.21 228.16"/><path class="cls-14" d="M230.72,165.8l13.45,6.31a118.47,118.47,0,0,1,11.88,3.67s9.35,3.82,9.78,6.33-7,8.55-13.56,5.61a21.2,21.2,0,0,0-5.46-2c-1.76-.19-7-1-10.75-4.61l-15.7-4.09S219.58,167.36,230.72,165.8Z"/><path class="cls-14" d="M239.43,184.56c1.56,1.67,6,5.88,7,7.09s3.26-1.91-.76-6.57a38,38,0,0,1-9.69-5.27A39.08,39.08,0,0,0,239.43,184.56Z"/><rect class="cls-14" x="185.16" y="104.33" width="15.96" height="19.32"/><path class="cls-15" d="M201.13,123.65a25.72,25.72,0,0,1-14.67-14v-5.37h14.67Z"/><path class="cls-14" d="M206.5,78.82s14.52,1.75,11.19,26.55c-1.54,11.47-4.6,17.27-13.45,16.29-10-1.11-23.87-8.89-21.72-28.55S206.5,78.82,206.5,78.82Z"/><polygon class="cls-15" points="207.31 100.94 206.79 109.5 211.9 108.27 207.31 100.94"/><path class="cls-8" d="M199.71,100.17a1.75,1.75,0,1,0,1.85-1.64A1.75,1.75,0,0,0,199.71,100.17Z"/><path class="cls-8" d="M211.27,99.65A1.75,1.75,0,1,0,213.12,98,1.75,1.75,0,0,0,211.27,99.65Z"/><path class="cls-8" d="M215.36,96.26,212.07,94s1.4-1.28,2.65-.38A2.39,2.39,0,0,1,215.36,96.26Z"/><path class="cls-8" d="M200.93,95.87l-3.56,1.78s-.44-1.84,1-2.5A2.39,2.39,0,0,1,200.93,95.87Z"/><path class="cls-15" d="M207,113a9,9,0,0,1-5.53-1.85s-.56,2.93,1.88,3.65S207,113,207,113Z"/><path class="cls-8" d="M185,100.74s2.24,4.64,3.61,4.48,0-17.8,2.86-17.91,16.36,6.59,28.3-2.06c4.58-3.33,5.5-11.8,2.75-11s-6.46,3.21-11.48,2.86-22.54-8.47-26.9,3c0,0-9.7-.79-6.06,18.47.91,4.78,3.77,16.65,7.09,17.82Z"/><path class="cls-14" d="M185.78,105a9.62,9.62,0,0,0-.79-4.24,4.48,4.48,0,0,0-3.88-3c-4.49-.12-5.09,4.19-5,5.73.16,4,3.42,8.4,9.51,8.56Z"/><path class="cls-14" d="M187.17,191.43l11.43,9.06a39.53,39.53,0,0,1,5.81,1c2.18.66,7.93,2.77,9.45,3.1s-.45,2.94-4.42,2c0,0,8.34,5.72,8.22,8.26s-8.67,6.88-14.44,2.62a21.13,21.13,0,0,0-4.92-3.08c-1.68-.56-6.6-2.46-9.53-6.78l-10-5.21S176,190.6,187.17,191.43Z"/><path class="cls-14" d="M174.68,128.72s6.68,5.18,2.58,21.25-6.3,29.92-6.3,29.92l16.21,11.54a14.28,14.28,0,0,0-8.41,11s-25.54-10-26-16.49,5.32-34.35,6.21-39.48S164.35,131.15,174.68,128.72Z"/><path class="cls-15" d="M171,179.89a15.11,15.11,0,0,0-6.11.06,12.8,12.8,0,0,1,6.25-1.55Z"/><path class="cls-17" d="M283.47,163.64l-5.84,38.26s0,0-.05.06l-58,33.67a.09.09,0,0,1-.14-.09l5.67-37.09a5.52,5.52,0,0,1,2.57-3.86l53.26-32.66A1.7,1.7,0,0,1,283.47,163.64Z"/><path class="cls-9" d="M219.53,235.63l-31-18a4.72,4.72,0,0,1-2.35-4.08h0L219.78,233Z"/><path class="cls-9" d="M249.87,200.51c0,2.73,1.92,3.84,4.28,2.47a9.44,9.44,0,0,0,4.29-7.42c0-2.73-1.92-3.84-4.29-2.47A9.49,9.49,0,0,0,249.87,200.51Z"/><path class="cls-8" d="M185.67,85.72s-2.63-3.89-1-5.15S187.51,83.32,185.67,85.72Z"/><path class="cls-8" d="M186.12,86.54s-4.67-.58-4.56-2.62S185.51,83.57,186.12,86.54Z"/><path class="cls-14" d="M185.16,123.65s3.43,9,11.33,7.87,4.64-7.87,4.64-7.87Z"/><path class="cls-3" d="M174.68,128.72s5.2,2.49,4.4,13-4.92,31.54-4.92,31.54-18.62,7.53-20.39-3.09c-.46-2.75,4.24-28.18,8.24-33.57A19,19,0,0,1,174.68,128.72Z"/><path class="cls-10" d="M174.68,128.72s5.2,2.49,4.4,13-4.92,31.54-4.92,31.54-18.62,7.53-20.39-3.09c-.46-2.75,4.24-28.18,8.24-33.57A19,19,0,0,1,174.68,128.72Z"/><path class="cls-7" d="M230.14,311.49a5.05,5.05,0,0,0,3,2.13c1.12.17-1.16-2.76,1.56-3.93s9-2.79,9.51-.45l.69,2.92a17.31,17.31,0,0,0,3.84,7.45,36,36,0,0,0,6.17,5.88c3.55,2.3,9.4,7.85,1.89,12.57s-16.73.74-18.54-4.63-3.72-6.93-4.68-7.83a10.26,10.26,0,0,1-4.06-5.92,54.37,54.37,0,0,1-1-7.19,2.67,2.67,0,0,1,1.23-2.49h0Z"/><path class="cls-8" d="M256.84,338.06c-7.5,4.73-16.73.74-18.54-4.63s-3.72-6.93-4.68-7.83a10.67,10.67,0,0,1-3.74-4.87c0,.15,0,.3,0,.45.28,4.65,3.13,5.74,4.1,6.63s2.54,2.37,4.34,7.74,11.33,8.73,18.84,4c3.64-2.3,4.13-4.78,3.28-7C260.61,334.37,259.69,336.27,256.84,338.06Z"/><path class="cls-3" d="M220.76,266.68l-23.92,13.81-30.2-17.43,24-13.84a2,2,0,0,1,2,0l28.09,16.22A.71.71,0,0,1,220.76,266.68Z"/><path class="cls-13" d="M220.76,266.68l-23.92,13.81-30.2-17.43,24-13.84a2,2,0,0,1,2,0l28.09,16.22A.71.71,0,0,1,220.76,266.68Z"/><path class="cls-5" d="M219.1,266.17,196.84,279l-28.1-16.23,22.31-12.88a1.92,1.92,0,0,1,1.91,0L219.1,265A.66.66,0,0,1,219.1,266.17Z"/><polygon class="cls-5" points="196.84 279.03 196.84 276.52 219.44 263.47 219.44 265.61 196.84 279.03"/><polygon class="cls-9" points="196.84 279.03 196.84 276.52 168.74 260.3 168.74 262.8 196.84 279.03"/><path class="cls-3" d="M220.76,262.71l-23.92,13.81-30.2-17.43,24-13.84a2,2,0,0,1,2,0l28.09,16.22A.71.71,0,0,1,220.76,262.71Z"/><path class="cls-11" d="M220.76,262.71l-23.92,13.81-30.2-17.43,24-13.84a2,2,0,0,1,2,0l28.09,16.22A.71.71,0,0,1,220.76,262.71Z"/><path class="cls-5" d="M193.72,278.69a.54.54,0,0,1-.74-.5v-2.27a3,3,0,0,1,1.46-2.55l.08-.05a.28.28,0,0,1,.27,0,.26.26,0,0,1,.14.23.47.47,0,0,0,.94,0,1.21,1.21,0,0,0-1.83-1l-.08.05a3.93,3.93,0,0,0-1.92,3.36v2.27a1.49,1.49,0,0,0,2.31,1.23.48.48,0,0,0,.18-.26Z"/><path class="cls-5" d="M189.25,276.11a.54.54,0,0,1-.74-.5v-2.27a3,3,0,0,1,1.46-2.55l.08-.05a.28.28,0,0,1,.27,0,.26.26,0,0,1,.14.23.47.47,0,0,0,.94,0,1.21,1.21,0,0,0-1.83-1l-.08.05a3.93,3.93,0,0,0-1.92,3.36v2.27a1.49,1.49,0,0,0,2.31,1.23.48.48,0,0,0,.18-.26Z"/><path class="cls-5" d="M184.78,273.53a.54.54,0,0,1-.74-.5v-2.27a3,3,0,0,1,1.46-2.55l.08,0a.28.28,0,0,1,.27,0,.26.26,0,0,1,.14.23.47.47,0,0,0,.94,0,1.21,1.21,0,0,0-1.83-1l-.08,0a3.93,3.93,0,0,0-1.92,3.36V273a1.49,1.49,0,0,0,2.31,1.23.48.48,0,0,0,.18-.26Z"/><path class="cls-5" d="M180.31,271a.54.54,0,0,1-.74-.5v-2.27a3,3,0,0,1,1.46-2.55l.08-.05a.28.28,0,0,1,.27,0,.26.26,0,0,1,.14.23.47.47,0,0,0,.94,0,1.21,1.21,0,0,0-1.83-1l-.08.05a3.93,3.93,0,0,0-1.92,3.36v2.27a1.5,1.5,0,0,0,1.48,1.48,1.47,1.47,0,0,0,.83-.25.48.48,0,0,0,.18-.26Z"/><path class="cls-5" d="M175.84,268.37a.54.54,0,0,1-.74-.5V265.6a3,3,0,0,1,1.46-2.55l.08-.05a.28.28,0,0,1,.27,0,.26.26,0,0,1,.14.23.47.47,0,1,0,.94,0,1.21,1.21,0,0,0-1.83-1l-.08.05a3.93,3.93,0,0,0-1.92,3.36v2.27a1.5,1.5,0,0,0,1.48,1.48,1.47,1.47,0,0,0,.83-.25.48.48,0,0,0,.18-.26Z"/><path class="cls-5" d="M171.37,265.79a.54.54,0,0,1-.74-.5V263a3,3,0,0,1,1.46-2.55l.08-.05a.28.28,0,0,1,.27,0,.26.26,0,0,1,.14.23.47.47,0,1,0,.94,0,1.21,1.21,0,0,0-1.83-1l-.08.05a3.93,3.93,0,0,0-1.92,3.36v2.27a1.5,1.5,0,0,0,1.48,1.48,1.47,1.47,0,0,0,.83-.25.48.48,0,0,0,.18-.26Z"/><polygon class="cls-2" points="223.85 256.47 197.98 271.4 164.33 251.97 190.19 237.03 223.85 256.47"/><polygon class="cls-17" points="225.33 255.98 198.31 268.69 166.4 246.51 193.42 233.79 225.33 255.98"/><path class="cls-3" d="M165,216.27H143.06l2,23.23h0a4.66,4.66,0,0,0,2.62,3.4,14.13,14.13,0,0,0,12.76,0,4.63,4.63,0,0,0,2.62-3.4h0Z"/><path class="cls-9" d="M166.41,215v-1.84H166a7.54,7.54,0,0,0-3.2-3.2c-4.83-2.79-12.67-2.79-17.5,0a7.51,7.51,0,0,0-3.19,3.2h-.44V215c0,1.83,1.21,3.66,3.63,5.06,4.83,2.79,12.67,2.79,17.5,0C165.21,218.67,166.41,216.83,166.41,215Z"/><path class="cls-16" d="M162.78,218.32c-4.83,2.79-12.67,2.79-17.5,0s-4.83-7.32,0-10.11,12.67-2.79,17.5,0S167.62,215.53,162.78,218.32Z"/><path class="cls-9" d="M164,212.5V211h-.35a6,6,0,0,0-2.56-2.56,15.53,15.53,0,0,0-14,0,6.08,6.08,0,0,0-2.56,2.56h-.35v1.49c0,1.47,1,2.93,2.91,4.05a15.47,15.47,0,0,0,14,0C163,215.44,164,214,164,212.5Z"/><path class="cls-1" d="M161,215.16a15.47,15.47,0,0,1-14,0c-3.87-2.24-3.87-5.86,0-8.1a15.53,15.53,0,0,1,14,0C164.92,209.3,164.92,212.92,161,215.16Z"/><path class="cls-18" d="M159.43,214a12,12,0,0,1-10.8,0c-2.89-1.66-3-4.33-.3-6l.3-.19a9.33,9.33,0,0,1,2.09-.85,12.08,12.08,0,0,1,8.71.85C162.41,209.46,162.41,212.26,159.43,214Z"/><path class="cls-9" d="M148.63,208.63a12,12,0,0,1,10.8,0,4.07,4.07,0,0,1,2.2,2.68c.22-1.27-.51-2.59-2.2-3.56a12,12,0,0,0-10.8,0c-1.68,1-2.41,2.29-2.19,3.56A4.08,4.08,0,0,1,148.63,208.63Z"/><path class="cls-9" d="M152.71,208.93l-2.22,1.41-2.16-1.55v-.86l.3-.19a9.33,9.33,0,0,1,2.09-.85v.64Z"/><path class="cls-3" d="M413.37,72.47,288.89.6a3,3,0,0,0-3.63,0l-4.3,3,2.93,3.63V107.59c0,3.67,2.24,8,5,9.54l123.24,71.15.23,3.92,4.54-3.11a4.73,4.73,0,0,0,1.46-3.87V82C418.36,78.33,416.13,74.06,413.37,72.47Z"/><path class="cls-19" d="M413.37,72.47,288.89.6a3,3,0,0,0-3.63,0l-4.3,3,2.93,3.63V107.59c0,3.67,2.24,8,5,9.54l123.24,71.15.23,3.92,4.54-3.11a4.73,4.73,0,0,0,1.46-3.87V82C418.36,78.33,416.13,74.06,413.37,72.47Z"/><path class="cls-3" d="M409.13,191.92,284.65,120.05c-2.76-1.6-5-5.87-5-9.54V7.29c0-3.68,2.24-5.37,5-3.78L409.13,75.38c2.76,1.6,5,5.87,5,9.54V188.14C414.12,191.82,411.89,193.51,409.13,191.92Z"/><path class="cls-3" d="M409.13,191.92,284.65,120.05c-2.76-1.6-5-5.87-5-9.54V7.29c0-3.68,2.24-5.37,5-3.78L409.13,75.38c2.76,1.6,5,5.87,5,9.54V188.14C414.12,191.82,411.89,193.51,409.13,191.92Z"/><path class="cls-7" d="M409.13,75.38,284.65,3.51c-2.76-1.59-5,.1-5,3.78v5.05L414.12,90v-5C414.12,81.25,411.89,77,409.13,75.38Z"/><path class="cls-3" d="M282.66,3.92h0a3.11,3.11,0,0,1,1.49.46L408.63,76.25c2.43,1.41,4.49,5.38,4.49,8.67V188.14c0,2.05-.79,3.37-2,3.37a3,3,0,0,1-1.48-.46L285.15,119.18c-2.44-1.41-4.5-5.38-4.5-8.67V7.29c0-2,.79-3.37,2-3.37m0-1c-1.77,0-3,1.63-3,4.37V110.51c0,3.67,2.24,7.94,5,9.54l124.48,71.87a4,4,0,0,0,2,.59c1.77,0,3-1.63,3-4.37V84.92c0-3.67-2.23-7.94-5-9.54L284.65,3.51a4.09,4.09,0,0,0-2-.59Z"/><path class="cls-5" d="M337.36,57.56a1.13,1.13,0,0,1-.53-.14L289.45,30.06a1.06,1.06,0,1,1,1.06-1.83l47.38,27.35a1.06,1.06,0,0,1-.53,2Z"/><path class="cls-5" d="M404,96.05a1,1,0,0,1-.53-.14L368.4,75.65a1.06,1.06,0,0,1,1.06-1.84l35.1,20.27a1.05,1.05,0,0,1-.53,2Z"/><path class="cls-5" d="M361.32,71.39a1,1,0,0,1-.53-.14L346.54,63a1.06,1.06,0,1,1,1.06-1.83l14.25,8.23a1.05,1.05,0,0,1-.53,2Z"/><path class="cls-5" d="M337.36,123.93a1.13,1.13,0,0,1-.53-.14L289.45,96.43a1.06,1.06,0,0,1,1.06-1.84L337.89,122a1.06,1.06,0,0,1-.53,2Z"/><path class="cls-5" d="M404,162.42a1.13,1.13,0,0,1-.53-.14L368.4,142a1.06,1.06,0,1,1,1.06-1.83l35.1,20.26a1.06,1.06,0,0,1-.53,2Z"/><path class="cls-5" d="M361.32,137.76a1,1,0,0,1-.53-.14l-14.25-8.23a1.06,1.06,0,0,1,1.06-1.84l14.25,8.23a1.06,1.06,0,0,1-.53,2Z"/><path class="cls-5" d="M337.36,139.53a1,1,0,0,1-.53-.14L289.45,112a1.06,1.06,0,1,1,1.06-1.83l47.38,27.35a1.06,1.06,0,0,1-.53,2Z"/><path class="cls-5" d="M389.09,169.4a1.13,1.13,0,0,1-.53-.14L368.4,157.62a1.06,1.06,0,0,1,1.06-1.84l20.16,11.64a1.06,1.06,0,0,1-.53,2Z"/><path class="cls-5" d="M361.32,153.37a1,1,0,0,1-.53-.15L346.54,145a1.06,1.06,0,1,1,1.06-1.83l14.25,8.23a1.06,1.06,0,0,1-.53,2Z"/><path class="cls-5" d="M313.73,52.16a1,1,0,0,1-.53-.14L289.45,38.31a1.06,1.06,0,1,1,1.06-1.84l23.75,13.72a1.05,1.05,0,0,1-.53,2Z"/><path class="cls-5" d="M382.16,91.67a1,1,0,0,1-.52-.14l-35.1-20.26a1.06,1.06,0,1,1,1.06-1.84L382.7,89.7a1.06,1.06,0,0,1-.54,2Z"/><path class="cls-5" d="M337.69,66a1.13,1.13,0,0,1-.53-.14l-14.25-8.24a1.05,1.05,0,0,1,1-1.83L338.22,64a1.06,1.06,0,0,1-.53,2Z"/><path class="cls-5" d="M337.36,74.05a1,1,0,0,1-.53-.14L289.45,46.55a1.06,1.06,0,1,1,1.06-1.83l47.38,27.36a1.05,1.05,0,0,1-.53,2Z"/><path class="cls-5" d="M378.28,97.68a1.13,1.13,0,0,1-.53-.14l-9.35-5.4a1.06,1.06,0,0,1,1.06-1.84l9.35,5.4a1.06,1.06,0,0,1-.53,2Z"/><path class="cls-5" d="M318.4,71.36a1,1,0,0,1-.52-.15l-9.35-5.39a1.06,1.06,0,0,1-.39-1.45,1.05,1.05,0,0,1,1.44-.39l9.35,5.4a1.06,1.06,0,0,1,.39,1.45A1,1,0,0,1,318.4,71.36Z"/><path class="cls-5" d="M361.32,87.89a1.13,1.13,0,0,1-.53-.14l-14.25-8.24a1.06,1.06,0,1,1,1.06-1.83l14.25,8.23a1.06,1.06,0,0,1-.53,2Z"/><path class="cls-5" d="M305.16,63.71a1.13,1.13,0,0,1-.53-.14L289.45,54.8A1.06,1.06,0,1,1,290.51,53l15.18,8.76a1.06,1.06,0,0,1,.39,1.45A1,1,0,0,1,305.16,63.71Z"/><path class="cls-5" d="M337.69,82.49a1.13,1.13,0,0,1-.53-.14l-14.25-8.23a1.06,1.06,0,0,1,1-1.84l14.26,8.23a1.06,1.06,0,0,1-.53,2Z"/><path class="cls-5" d="M337.36,91.15a1.13,1.13,0,0,1-.53-.14L289.45,63.65a1.06,1.06,0,1,1,1.06-1.84l47.38,27.36a1.06,1.06,0,0,1-.53,2Z"/><path class="cls-5" d="M404,129.64a1.13,1.13,0,0,1-.53-.14l-35.1-20.27a1.06,1.06,0,1,1,1.06-1.83l35.1,20.26a1.06,1.06,0,0,1-.53,2Z"/><path class="cls-5" d="M361.32,105a1,1,0,0,1-.53-.14l-14.25-8.23a1.06,1.06,0,0,1,1.06-1.84L361.85,103a1.05,1.05,0,0,1-.53,2Z"/><path class="cls-5" d="M313.73,85.75a1,1,0,0,1-.53-.14L289.45,71.9a1.06,1.06,0,0,1,1.06-1.84l23.75,13.71a1.06,1.06,0,0,1-.53,2Z"/><path class="cls-5" d="M382.16,125.26a1,1,0,0,1-.52-.14l-35.1-20.26A1.06,1.06,0,0,1,347.6,103l35.1,20.27a1.06,1.06,0,0,1-.54,2Z"/><path class="cls-5" d="M337.69,99.58a1,1,0,0,1-.53-.14l-14.25-8.23a1.06,1.06,0,0,1-.39-1.45,1,1,0,0,1,1.44-.38l14.26,8.23a1.06,1.06,0,0,1,.39,1.45A1.07,1.07,0,0,1,337.69,99.58Z"/><path class="cls-5" d="M337.36,107.64a1.13,1.13,0,0,1-.53-.14L289.45,80.14a1.06,1.06,0,1,1,1.06-1.83l47.38,27.35a1.06,1.06,0,0,1-.53,2Z"/><path class="cls-5" d="M378.28,131.27a1,1,0,0,1-.53-.15l-9.35-5.39a1.06,1.06,0,0,1,1.06-1.84l9.35,5.4a1.06,1.06,0,0,1-.53,2Z"/><path class="cls-5" d="M318.4,104.94a1,1,0,0,1-.52-.14l-9.35-5.4a1.05,1.05,0,0,1,1.05-1.83l9.35,5.4a1.05,1.05,0,0,1-.53,2Z"/><path class="cls-5" d="M361.32,121.47a1,1,0,0,1-.53-.14l-14.25-8.23a1.06,1.06,0,1,1,1.06-1.83l14.25,8.23a1.05,1.05,0,0,1-.53,2Z"/><path class="cls-5" d="M305.16,97.3a1.13,1.13,0,0,1-.53-.14l-15.18-8.77a1.06,1.06,0,0,1,1.06-1.84l15.18,8.77a1.06,1.06,0,0,1,.39,1.45A1,1,0,0,1,305.16,97.3Z"/><path class="cls-5" d="M337.69,116.08a1.13,1.13,0,0,1-.53-.14l-14.25-8.24a1.05,1.05,0,0,1,1-1.83l14.26,8.23a1.06,1.06,0,0,1-.53,2Z"/><path class="cls-5" d="M318.4,120.75a1.07,1.07,0,0,1-.52-.14l-9.35-5.4a1.06,1.06,0,0,1-.39-1.45,1,1,0,0,1,1.44-.38l9.35,5.39a1.06,1.06,0,0,1,.39,1.45A1,1,0,0,1,318.4,120.75Z"/><path class="cls-5" d="M305.16,113.11a1,1,0,0,1-.53-.15l-15.18-8.76a1.06,1.06,0,0,1,1.06-1.84l15.18,8.77a1.06,1.06,0,0,1,.39,1.45A1,1,0,0,1,305.16,113.11Z"/><path class="cls-5" d="M337.69,131.89a1,1,0,0,1-.53-.15l-14.25-8.23a1.05,1.05,0,1,1,1-1.83l14.26,8.23a1.06,1.06,0,0,1-.53,2Z"/><path class="cls-8" d="M299.36,40.34V78.69a1.15,1.15,0,0,1-.57,1.16h0l-1.46.8v-1.3l-.2-39.43L299,39A3.44,3.44,0,0,1,299.36,40.34Z"/><path class="cls-6" d="M299,39l-1.92,1-46.5-27.25-1.1-.64,1.53-.87,0,0h0a.88.88,0,0,1,.92.06L298,37.7A2.91,2.91,0,0,1,299,39Z"/><path class="cls-7" d="M297.69,41.18V79.27a1.26,1.26,0,0,1-.44,1.09l-.09,0a.9.9,0,0,1-.84-.1L250.61,54a3.3,3.3,0,0,1-1.37-2.63V13.26a1.3,1.3,0,0,1,.41-1.07l.14-.08a1,1,0,0,1,.82.11l45.71,26.34a2.74,2.74,0,0,1,1,1.19A3.36,3.36,0,0,1,297.69,41.18Z"/><text class="cls-20" transform="matrix(-0.87, -0.5, 0, 1, 289.45, 65.86)">&lt;/&gt;</text><path class="cls-6" d="M249.88,12.16a.88.88,0,0,1,.43.13l46,26.49a2.55,2.55,0,0,1,.93,1.09,3.18,3.18,0,0,1,.33,1.33V79.52a1.05,1.05,0,0,1-.31.87l-.08,0a.41.41,0,0,1-.19,0,.82.82,0,0,1-.42-.13l-46-26.49a3.07,3.07,0,0,1-1.25-2.42V13.11a1.06,1.06,0,0,1,.31-.87l.08-.05.18,0m0-.26a.67.67,0,0,0-.28.06.5.5,0,0,0-.14.08,1.29,1.29,0,0,0-.41,1.07V51.43a3.31,3.31,0,0,0,1.38,2.64l46,26.49a1.06,1.06,0,0,0,.55.17.6.6,0,0,0,.3-.07l.09,0a1.26,1.26,0,0,0,.44-1.09V41.2a3.23,3.23,0,0,0-.36-1.44,2.72,2.72,0,0,0-1-1.2l-46-26.49a1,1,0,0,0-.55-.17Z"/><path class="cls-5" d="M292,13.14c0,1.1-.77,1.54-1.71,1a3.75,3.75,0,0,1-1.71-3c0-1.09.76-1.53,1.71-1A3.8,3.8,0,0,1,292,13.14Z"/><path class="cls-5" d="M298.32,17.07c0,1.09-.77,1.53-1.71,1a3.77,3.77,0,0,1-1.71-3c0-1.09.76-1.53,1.71-1A3.78,3.78,0,0,1,298.32,17.07Z"/><path class="cls-5" d="M304.68,21c0,1.09-.77,1.53-1.71,1a3.75,3.75,0,0,1-1.71-3c0-1.09.76-1.53,1.71-1A3.8,3.8,0,0,1,304.68,21Z"/></g></g></svg>